<?xml version="1.0" standalone="no"?>
<!DOCTYPE svg PUBLIC "-//W3C//DTD SVG 20010904//EN"
 "http://www.w3.org/TR/2001/REC-SVG-20010904/DTD/svg10.dtd">
<svg version="1.0" xmlns="http://www.w3.org/2000/svg"
 width="138.000000pt" height="112.000000pt" viewBox="0 0 138.000000 112.000000"
 preserveAspectRatio="xMidYMid meet">
<metadata>
Created by potrace 1.16, written by Peter Selinger 2001-2019
</metadata>
<g transform="translate(0.000000,112.000000) scale(0.100000,-0.100000)"
fill="#000000" stroke="none">
<path d="M0 560 l0 -560 690 0 690 0 0 560 0 560 -690 0 -690 0 0 -560z m1051
511 c61 -62 20 -171 -65 -171 -32 0 -38 -5 -78 -70 -24 -38 -48 -70 -54 -70
-5 0 -19 6 -29 14 -18 13 -17 17 24 85 34 57 40 75 31 90 -20 39 -12 91 19
122 24 24 38 29 76 29 38 0 52 -5 76 -29z m-229 -346 c98 -65 98 -216 -1 -282
-118 -80 -281 3 -281 142 0 139 162 219 282 140z"/>
<path d="M906 1064 c-29 -30 -35 -77 -12 -110 13 -18 10 -27 -29 -91 -32 -52
-40 -74 -32 -82 19 -19 25 -13 68 59 38 65 44 70 76 70 49 0 93 45 93 95 0 79
-106 117 -164 59z"/>
<path d="M669 740 c-77 -23 -124 -92 -117 -171 13 -135 176 -195 279 -102 72
65 74 160 5 229 -45 45 -109 62 -167 44z"/>
</g>
</svg>
